<svg xmlns="http://www.w3.org/2000/svg" version="1.1" xmlns:xlink="http://www.w3.org/1999/xlink" xmlns:svgjs="http://svgjs.dev/svgjs" viewBox="0 0 800 800" opacity="0.45"><defs><linearGradient x1="50%" y1="0%" x2="50%" y2="100%" id="ccchaos-grad"><stop stop-color="#5899E2" stop-opacity="1" offset="0%"></stop><stop stop-color="#65AFFF" stop-opacity="1" offset="100%"></stop></linearGradient></defs><g stroke-width="2" stroke="url(#ccchaos-grad)" fill="none" stroke-linecap="round"><path d="M368.13 62.97C379 66.07 389.64 69.19 400.05 72.11 410.48 74.17 420.73 75.87 430.83 77.22 441.03 77.74 451.2 78.13 461.41 78.55 471.88 78.63 482.57 79.16 493.58 80.31 505.05 81.73 517.04 84.12 529.64 87.57 542.86 91.67 556.81 96.95 571.48 103.35 586.73 110.45 602.6 118.57 618.94 127.56 635.44 137.03 651.98 147.14 668.16 157.74 683.67 168.48 698.1 179.5 710.94 190.66 722.05 201.7 730.83 212.77 736.86 223.8 740.46 234.57 741.02 245.28 738.53 255.94 733.97 266.31 726.97 276.68 718.07 287.08 708.8 297.25 699.14 307.52 689.98 317.94 682.9 328.2 677.98 338.69 675.92 349.44 677.7 360.11 682.96 371.1 691.64 382.43 703.71 393.74 718.08 405.42 733.73 417.5 749.93 429.58 764.67 441.79 776.84 454.07 786.32 466.36 791.68 478.71 792.61 491.07 789.65 503.37 782.4 515.62 771.43 527.68 757.73 539.6 741.71 551.22 724.3 562.4 706.49 573.26 688.87 583.49 672.16 592.94 657.01 601.87 643.67 609.84 632.34 616.69 623.32 622.91 616.31 627.95 611.06 631.78 605.21 638.35 601.72 644.35 598.69 648.43 595.97 653.09 592.03 659.12 586.87 666.69 581.2 676.13 574.34 686.97 566.4 698.96 558.03 711.96 548.73 725.18 538.64 737.97 528.28 749.99 517.29 760.25 505.82 768.07 494.21 773.43 482.23 775.52 469.97 774.13 457.68 770.03 445.16 762.9 432.46 753.29 419.76 742.67 407.19 731.44 394.77 720.52 382.33 711.08 370 703.27 357.78 697.49 345.5 694.39 333.29 693.44 321.14 694.36 308.91 697.36 296.71 701.31 284.55 705.61 272.32 710.37 260.13 714.31 248.04 716.94 235.95 718.55 224.01 718.16 212.3 715.64 200.73 711.48 189.51 705.17 178.73 696.94 168.28 687.3 158.39 676.18 149.2 663.9 140.46 650.91 132.48 637.3 125.34 623.37 118.68 609.37 112.84 595.42 107.81 581.7 103.12 568.27 99.13 555.2 95.77 542.53 92.47 530.26 89.62 518.34 87.16 506.74 84.47 495.46 82 484.38 79.72 473.43 77.03 462.68 74.48 451.94 72.09 441.16 69.29 430.46 66.72 419.63 64.43 408.66 61.92 397.7 59.85 386.54 58.31 375.21 56.82 363.88 56.07 352.64 56.11 341.53 56.44 330.45 57.67 319.54 59.8 308.86 62.34 298.26 65.8 287.95 70.11 278.01 74.79 268.19 80.22 258.8 86.31 249.9 92.53 241.16 99.23 232.94 106.28 225.29 113.15 217.77 120.2 210.8 127.33 204.37 134.05 197.95 140.77 191.97 147.44 186.38 153.62 180.59 159.78 175.01 165.97 169.55 171.74 163.64 177.64 157.66 183.72 151.54 189.57 144.77 195.75 137.77 202.28 130.53 208.77 122.68 215.73 114.68 223.15 106.65 230.66 98.33 238.67 90.29 247.17 82.71 255.8 75.4 264.89 68.95 274.38 63.57 283.99 58.95 293.96 55.65 304.2 53.77 314.52 52.76 325.05 53.09 335.74 54.66 346.45 56.69 357.26 59.53 368.13 62.96" stroke-dasharray="3 3" transform="rotate(0, 400, 400)" opacity="0.96"></path><path d="M367.55 74.1C378.04 77.22 388.44 80.35 398.74 83.3 409.07 85.42 419.35 87.2 429.62 88.64 440 89.25 450.47 89.71 461.11 90.16 471.99 90.22 483.19 90.65 494.78 91.61 506.78 92.75 519.3 94.77 532.41 97.74 546 101.3 560.22 105.97 575.01 111.71 590.17 118.14 605.73 125.58 621.49 133.92 637.17 142.78 652.6 152.34 667.42 162.46 681.36 172.81 694.02 183.52 704.97 194.46 714.17 205.38 721.05 216.4 725.29 227.43 727.33 238.29 726.61 249.13 723.18 259.93 718.06 270.5 710.92 281.05 702.27 291.6 693.57 301.96 684.76 312.38 676.64 322.89 670.65 333.26 666.78 343.79 665.61 354.52 668.02 365.17 673.62 376.08 682.32 387.25 694.08 398.39 707.89 409.84 722.84 421.6 738.29 433.36 752.39 445.17 764.16 456.97 773.52 468.76 779.11 480.53 780.63 492.2 778.57 503.81 772.49 515.25 762.83 526.41 750.5 537.41 735.78 548.02 719.49 558.09 702.55 567.85 685.46 576.92 668.92 585.17 653.54 592.96 639.61 599.8 627.39 605.6 617.19 610.88 608.82 615.12 602.14 618.32 592.27 624.57 585.47 633.05 582.53 638.62 580.16 644.24 576.79 651.17 572.37 659.47 567.57 669.42 561.68 680.53 554.76 692.52 547.48 705.25 539.27 717.97 530.22 730.07 520.93 741.28 510.93 750.7 500.35 757.73 489.64 762.42 478.45 764.04 466.86 762.41 455.23 758.29 443.27 751.38 431.02 742.15 418.78 731.99 406.55 721.23 394.37 710.68 382.19 701.43 370.04 693.61 357.94 687.61 345.81 684.06 333.7 682.49 321.63 682.7 309.51 684.93 297.41 688.18 285.37 691.93 273.31 696.3 261.31 700.12 249.45 702.93 237.65 704.99 226.05 705.34 214.73 703.82 203.62 700.86 192.89 695.9 182.65 689.09 172.78 680.92 163.5 671.21 154.93 660.25 146.81 648.47 139.46 635.89 132.92 622.81 126.83 609.48 121.52 596.01 116.98 582.59 112.74 569.31 109.13 556.25 106.12 543.49 103.12 531.03 100.52 518.87 98.27 507.02 95.74 495.44 93.4 484.09 91.22 472.93 88.6 461.96 86.07 451.07 83.66 440.23 80.84 429.49 78.18 418.71 75.79 407.89 73.15 397.08 70.92 386.2 69.2 375.23 67.53 364.26 66.61 353.47 66.46 342.89 66.63 332.33 67.71 322.01 69.69 311.99 72.11 302.01 75.46 292.37 79.67 283.13 84.26 273.98 89.62 265.26 95.65 257.04 101.84 248.91 108.52 241.27 115.57 234.16 122.49 227.11 129.6 220.53 136.81 214.41 143.64 208.21 150.47 202.37 157.26 196.81 163.57 190.98 169.84 185.27 176.1 179.6 181.93 173.45 187.83 167.19 193.85 160.75 199.59 153.71 205.58 146.44 211.86 138.97 218.02 130.97 224.57 122.89 231.54 114.85 238.52 106.63 245.96 98.74 253.86 91.4 261.82 84.38 270.24 78.25 279.06 73.21 287.96 68.93 297.24 65.94 306.83 64.32 316.48 63.54 326.4 64.03 336.54 65.71 346.7 67.8 357.04 70.67 367.54 74.1" stroke-dasharray="2 3" transform="rotate(3.7333333333333334, 400, 400)" opacity="0.82"></path><path d="M369.07 85.24C379.26 88.35 389.46 91.49 399.68 94.47 409.94 96.65 420.26 98.51 430.68 100.04 441.22 100.76 451.96 101.3 462.95 101.8 474.16 101.87 485.75 102.22 497.74 103.03 510.08 103.94 522.92 105.62 536.27 108.16 549.98 111.21 564.17 115.29 578.77 120.4 593.53 126.14 608.48 132.89 623.38 140.54 637.99 148.73 652.11 157.67 665.39 167.22 677.67 177.08 688.53 187.38 697.6 197.98 704.97 208.65 710.08 219.49 712.72 230.41 713.41 241.24 711.62 252.09 707.48 262.92 702.01 273.6 694.89 284.26 686.64 294.9 678.6 305.39 670.69 315.91 663.62 326.48 658.68 336.93 655.8 347.49 655.47 358.17 658.44 368.8 664.33 379.6 672.99 390.59 684.43 401.56 697.69 412.75 711.94 424.16 726.66 435.57 740.14 446.93 751.49 458.21 760.69 469.47 766.47 480.6 768.5 491.55 767.28 502.43 762.28 513.04 753.88 523.28 742.9 533.36 729.49 542.96 714.39 551.98 698.41 560.7 682.01 568.7 665.83 575.89 650.45 582.69 636.17 588.58 623.29 593.53 612.12 598.1 602.58 601.78 594.61 604.59 585.91 608.31 575.6 614.01 572.38 617.29 570.83 620.58 569 624.61 566.65 629.61 564.34 636.1 561.24 643.79 557.26 652.71 553.06 663.01 547.89 674.26 541.78 686.13 535.39 698.49 528.09 710.64 519.97 722.01 511.62 732.41 502.54 741 492.8 747.27 482.95 751.33 472.53 752.51 461.63 750.67 450.68 746.56 439.31 739.86 427.57 731.02 415.82 721.31 404 711 392.15 700.83 380.3 691.79 368.42 684.01 356.54 677.82 344.65 673.87 332.75 671.73 320.86 671.27 308.98 672.76 297.11 675.3 285.3 678.44 273.53 682.35 261.86 685.95 250.35 688.79 238.97 691.15 227.82 692.07 217 691.36 206.43 689.46 196.29 685.72 186.68 680.23 177.45 673.47 168.83 665.17 160.92 655.57 153.46 645.08 146.74 633.67 140.81 621.6 135.29 609.14 130.51 596.37 126.45 583.48 122.63 570.58 119.4 557.77 116.7 545.14 113.97 532.69 111.59 520.48 109.5 508.54 107.12 496.82 104.88 485.32 102.75 474.05 100.17 462.93 97.65 451.95 95.21 441.1 92.34 430.33 89.61 419.61 87.1 408.94 84.35 398.29 81.98 387.65 80.09 377.02 78.27 366.38 77.17 356.01 76.85 345.92 76.86 335.83 77.77 326.05 79.59 316.6 81.87 307.18 85.08 298.14 89.15 289.51 93.64 280.93 98.9 272.79 104.83 265.11 110.97 257.48 117.61 250.31 124.64 243.6 131.58 236.87 138.74 230.55 146.02 224.6 152.96 218.51 159.92 212.68 166.84 207.05 173.3 201.09 179.72 195.19 186.1 189.26 192.04 182.84 198.01 176.28 204.06 169.54 209.77 162.23 215.67 154.73 221.8 147.07 227.75 138.98 234.03 130.87 240.66 122.88 247.23 114.81 254.22 107.13 261.62 100.06 269.04 93.37 276.89 87.59 285.15 82.9 293.44 78.96 302.12 76.28 311.16 74.93 320.22 74.36 329.6 75.01 339.27 76.77 348.94 78.92 358.88 81.81 369.06 85.23" stroke-dasharray="3 1" transform="rotate(7.466666666666667, 400, 400)" opacity="0.65"></path><path d="M372.61 96.37C382.54 99.48 392.58 102.62 402.73 105.62 412.92 107.86 423.28 109.8 433.82 111.42 444.47 112.25 455.39 112.89 466.61 113.45 478.03 113.55 489.84 113.87 502.04 114.56 514.52 115.27 527.43 116.66 540.76 118.82 554.31 121.4 568.2 124.93 582.3 129.42 596.4 134.5 610.47 140.55 624.28 147.49 637.62 154.97 650.28 163.23 661.93 172.15 672.51 181.42 681.59 191.2 688.85 201.34 694.51 211.64 698.03 222.18 699.26 232.86 698.81 243.53 696.18 254.27 691.55 265.03 685.92 275.69 678.99 286.36 671.24 297.01 663.94 307.55 656.96 318.1 650.93 328.67 647 339.14 645.04 349.68 645.48 360.28 648.95 370.84 655.07 381.51 663.67 392.28 674.77 403.05 687.48 413.95 701.05 424.98 715.05 436.01 727.91 446.91 738.83 457.63 747.85 468.33 753.76 478.81 756.25 489.02 755.78 499.16 751.79 508.95 744.59 518.31 734.91 527.5 722.81 536.16 708.93 544.21 694.01 551.99 678.43 559.06 662.77 565.35 647.6 571.33 633.19 576.49 619.89 580.81 607.99 584.9 597.5 588.24 588.42 590.91 577.8 594.76 563.74 601.9 559.01 606.39 556.65 610.55 554.22 615.49 551.5 621.38 548.97 628.63 545.87 636.96 542.08 646.34 538.2 656.87 533.51 668.11 527.98 679.74 522.25 691.65 515.69 703.17 508.32 713.78 500.78 723.37 492.5 731.15 483.53 736.69 474.46 740.16 464.78 740.93 454.56 738.92 444.28 734.82 433.52 728.35 422.32 719.88 411.11 710.62 399.75 700.76 388.3 690.97 376.87 682.17 365.34 674.44 353.78 668.12 342.23 663.82 330.65 661.17 319.06 660.08 307.52 660.85 296 662.68 284.56 665.2 273.2 668.59 261.97 671.86 250.94 674.61 240.08 677.11 229.5 678.44 219.27 678.38 209.34 677.35 199.86 674.68 190.93 670.39 182.4 664.95 174.48 658.02 167.26 649.76 160.47 640.61 154.4 630.45 149.07 619.51 144.11 608.08 139.84 596.18 136.24 584.02 132.81 571.72 129.92 559.36 127.5 547.08 125 534.86 122.8 522.8 120.85 510.96 118.57 499.25 116.4 487.76 114.3 476.48 111.74 465.33 109.2 454.35 106.72 443.54 103.8 432.8 100.99 422.17 98.38 411.66 95.52 401.18 93.02 390.77 90.99 380.45 89.02 370.13 87.76 360.13 87.27 350.47 87.12 340.81 87.86 331.49 89.51 322.55 91.63 313.61 94.67 305.07 98.59 296.95 102.93 288.84 108.06 281.15 113.87 273.9 119.91 266.64 126.48 259.8 133.46 253.35 140.41 246.83 147.59 240.64 154.92 234.75 161.96 228.66 169.04 222.74 176.1 216.95 182.73 210.8 189.31 204.65 195.85 198.43 201.95 191.73 208.04 184.87 214.18 177.85 219.95 170.32 225.86 162.63 231.94 154.85 237.78 146.72 243.89 138.65 250.3 130.77 256.6 122.89 263.26 115.48 270.29 108.71 277.29 102.38 284.7 96.96 292.5 92.64 300.29 89.05 308.48 86.68 317.05 85.58 325.62 85.23 334.55 86.02 343.82 87.87 353.08 90.06 362.68 92.96 372.6 96.37" stroke-dasharray="10 3" transform="rotate(11.200000000000001, 400, 400)" opacity="0.65"></path><path d="M377.93 107.5C387.63 110.61 397.53 113.74 407.6 116.75 417.72 119.05 428.06 121.06 438.65 122.77 449.34 123.72 460.34 124.47 471.65 125.11 483.13 125.26 494.98 125.58 507.19 126.19 519.58 126.75 532.32 127.9 545.36 129.72 558.5 131.88 571.82 134.9 585.18 138.8 598.38 143.24 611.37 148.6 623.9 154.82 635.85 161.58 646.96 169.12 656.93 177.35 665.82 185.96 673.17 195.13 678.75 204.72 682.85 214.53 684.97 224.64 685.01 234.96 683.64 245.34 680.4 255.84 675.47 266.41 669.86 276.94 663.25 287.5 656.11 298.05 649.61 308.54 643.57 319.03 638.56 329.51 635.59 339.94 634.51 350.39 635.63 360.85 639.55 371.29 645.84 381.77 654.35 392.3 665.1 402.82 677.25 413.4 690.16 424.02 703.45 434.64 715.7 445.05 726.19 455.19 735 465.32 740.99 475.16 743.88 484.65 744.08 494.07 741.03 503.08 734.95 511.6 726.52 519.98 715.72 527.8 703.08 535 689.29 541.98 674.64 548.28 659.66 553.85 644.88 559.2 630.57 563.83 617.07 567.76 604.68 571.57 593.46 574.8 583.47 577.54 574.87 580.45 567.44 583.13 561.02 585.75 555.79 588.96 551.27 592.46 547.22 596.44 543.92 601.44 540.73 607.22 537.45 613.89 534.49 621.79 531.15 630.61 527.32 640.3 523.51 650.91 519.04 662.03 513.87 673.33 508.59 684.7 502.56 695.54 495.79 705.39 488.89 714.15 481.28 721.16 472.99 726 464.61 728.92 455.61 729.32 446.03 727.14 436.4 723.09 426.25 716.84 415.61 708.75 404.97 699.93 394.13 690.51 383.15 681.1 372.19 672.55 361.11 664.91 349.95 658.5 338.84 653.91 327.68 650.8 316.52 649.13 305.43 649.22 294.38 650.35 283.42 652.22 272.59 655.05 261.91 657.91 251.46 660.45 241.22 662.95 231.29 664.53 221.75 664.95 212.52 664.62 203.76 662.85 195.57 659.62 187.75 655.39 180.56 649.73 174.04 642.78 167.92 634.95 162.48 626.07 157.75 616.33 153.32 606.03 149.53 595.15 146.34 583.88 143.28 572.36 140.68 560.66 138.51 548.91 136.2 537.13 134.15 525.41 132.29 513.83 130.09 502.33 127.95 490.99 125.86 479.84 123.29 468.79 120.72 457.91 118.18 447.21 115.21 436.58 112.32 426.1 109.62 415.77 106.67 405.47 104.05 395.3 101.88 385.28 99.78 375.25 98.37 365.59 97.72 356.31 97.41 347.02 97.99 338.11 99.46 329.58 101.4 321.05 104.26 312.92 107.99 305.19 112.16 297.44 117.12 290.09 122.78 283.14 128.7 276.14 135.16 269.5 142.06 263.2 148.96 256.77 156.14 250.6 163.49 244.66 170.62 238.47 177.8 232.39 184.98 226.38 191.79 220 198.55 213.57 205.25 207.06 211.54 200.08 217.81 192.95 224.09 185.69 229.99 177.98 235.98 170.17 242.09 162.32 247.93 154.22 253.99 146.25 260.28 138.54 266.42 130.91 272.87 123.8 279.66 117.38 286.36 111.42 293.43 106.4 300.89 102.44 308.3 99.2 316.11 97.14 324.31 96.29 332.48 96.13 341.04 97.06 349.98 98.99 358.91 101.22 368.22 104.12 377.92 107.5" stroke-dasharray="10 9" transform="rotate(14.933333333333334, 400, 400)" opacity="0.09"></path><path d="M384.69 118.64C394.19 121.72 403.94 124.85 413.91 127.86 423.92 130.21 434.2 132.29 444.75 134.1 455.38 135.16 466.33 136.02 477.58 136.76 488.95 136.99 500.65 137.33 512.64 137.9 524.74 138.35 537.08 139.3 549.6 140.84 562.1 142.63 574.62 145.19 587.02 148.55 599.14 152.38 610.89 157.07 622.02 162.6 632.49 168.62 642.02 175.43 650.34 182.92 657.6 190.82 663.34 199.31 667.38 208.27 670.12 217.49 671.03 227.07 670.11 236.91 668.05 246.87 664.39 257.01 659.36 267.26 653.93 277.53 647.77 287.85 641.32 298.2 635.64 308.52 630.56 318.85 626.53 329.16 624.47 339.44 624.19 349.72 625.94 359.98 630.22 370.22 636.64 380.47 645.03 390.7 655.4 400.93 667.01 411.15 679.26 421.34 691.87 431.52 703.51 441.43 713.56 451.01 722.14 460.58 728.17 469.79 731.39 478.6 732.19 487.34 729.99 495.63 724.98 503.41 717.74 511.08 708.2 518.18 696.81 524.67 684.19 531.01 670.55 536.71 656.38 541.76 642.16 546.68 628.15 550.99 614.68 554.73 602.04 558.47 590.32 561.78 579.64 564.76 570.14 568.03 561.7 571.21 554.22 574.47 547.85 578.38 542.22 582.66 537.15 587.46 532.85 593.24 528.81 599.77 524.85 607.1 521.29 615.5 517.54 624.68 513.45 634.53 509.5 645.09 505.05 655.96 500.03 666.83 494.98 677.61 489.29 687.74 482.95 696.8 476.52 704.76 469.44 711.01 461.71 715.2 453.92 717.6 445.51 717.67 436.53 715.36 427.51 711.36 417.96 705.34 407.89 697.62 397.83 689.22 387.54 680.25 377.08 671.22 366.65 662.94 356.08 655.42 345.43 648.96 334.84 644.12 324.2 640.61 313.57 638.42 303.03 637.86 292.54 638.33 282.17 639.55 271.96 641.77 261.93 644.16 252.16 646.4 242.62 648.78 233.41 650.45 224.61 651.2 216.13 651.39 208.13 650.35 200.69 648.03 193.62 644.85 187.15 640.34 181.33 634.61 175.86 628.06 171.03 620.45 166.86 611.93 162.93 602.83 159.58 593.05 156.77 582.78 154.02 572.19 151.68 561.3 149.7 550.24 147.55 539.09 145.6 527.89 143.81 516.74 141.64 505.61 139.51 494.58 137.4 483.7 134.81 472.88 132.2 462.21 129.6 451.72 126.56 441.28 123.61 431 120.81 420.9 117.78 410.82 115.06 400.9 112.78 391.16 110.55 381.42 109.01 372.07 108.21 363.12 107.75 354.15 108.15 345.57 109.43 337.38 111.18 329.17 113.84 321.35 117.36 313.91 121.34 306.43 126.1 299.31 131.57 292.54 137.33 285.69 143.65 279.14 150.42 272.86 157.26 266.43 164.39 260.19 171.73 254.11 178.91 247.76 186.17 241.48 193.45 235.21 200.41 228.57 207.34 221.87 214.22 215.07 220.72 207.85 227.18 200.5 233.63 193.04 239.71 185.22 245.85 177.35 252.06 169.51 257.98 161.51 264.07 153.7 270.35 146.22 276.44 138.89 282.79 132.13 289.43 126.08 295.95 120.53 302.81 115.9 310.03 112.31 317.18 109.43 324.71 107.67 332.62 107.06 340.49 107.09 348.77 108.14 357.44 110.13 366.1 112.39 375.17 115.28 384.68 118.64" stroke-dasharray="2 2" transform="rotate(18.666666666666664, 400, 400)" opacity="0.65"></path><path d="M392.44 129.77C401.76 132.83 411.34 135.94 421.16 138.95 431.02 141.34 441.16 143.49 451.56 145.38 462.03 146.57 472.8 147.55 483.82 148.39 494.93 148.72 506.3 149.11 517.87 149.67 529.47 150.06 541.21 150.87 552.98 152.17 564.65 153.64 576.2 155.79 587.48 158.67 598.39 161.94 608.79 166.01 618.46 170.86 627.44 176.16 635.41 182.22 642.15 188.97 647.89 196.13 652.17 203.88 654.86 212.14 656.42 220.7 656.35 229.65 654.69 238.92 652.14 248.35 648.28 258.01 643.32 267.82 638.19 277.7 632.58 287.68 626.88 297.7 622.06 307.73 617.91 317.79 614.83 327.83 613.62 337.87 614.07 347.89 616.37 357.87 620.97 367.85 627.47 377.79 635.7 387.67 645.7 397.56 656.76 407.39 668.37 417.13 680.3 426.86 691.34 436.26 700.95 445.3 709.27 454.31 715.3 462.93 718.79 471.12 720.12 479.26 718.7 486.92 714.66 494.07 708.56 501.13 700.24 507.65 690.08 513.6 678.66 519.45 666.1 524.73 652.84 529.45 639.34 534.13 625.8 538.31 612.56 542.04 599.89 545.89 587.91 549.44 576.76 552.8 566.59 556.53 557.33 560.3 548.95 564.24 541.57 568.85 534.92 573.89 528.87 579.45 523.59 585.93 518.67 593.08 513.94 600.94 509.68 609.69 505.37 619.08 500.89 628.95 496.62 639.35 492 649.87 486.95 660.22 481.94 670.35 476.42 679.74 470.34 688.01 464.23 695.2 457.53 700.71 450.26 704.29 442.94 706.21 435.05 705.98 426.61 703.57 418.14 699.63 409.14 693.84 399.66 686.48 390.18 678.51 380.46 669.97 370.57 661.34 360.71 653.33 350.71 645.96 340.64 639.49 330.63 634.46 320.59 630.6 310.57 627.93 300.66 626.78 290.83 626.6 281.14 627.19 271.62 628.79 262.31 630.66 253.28 632.53 244.49 634.67 236.05 636.3 228.04 637.21 220.33 637.77 213.11 637.29 206.44 635.69 200.1 633.4 194.33 629.92 189.19 625.29 184.34 619.93 180.08 613.52 176.42 606.2 172.95 598.31 169.98 589.68 167.5 580.47 165.02 570.91 162.89 560.95 161.07 550.72 159.03 540.33 157.15 529.81 155.38 519.24 153.22 508.64 151.07 498.06 148.92 487.58 146.29 477.12 143.62 466.78 140.96 456.59 137.86 446.43 134.84 436.42 131.97 426.6 128.86 416.78 126.06 407.14 123.67 397.68 121.35 388.22 119.68 379.15 118.74 370.48 118.12 361.8 118.35 353.49 119.44 345.57 121 337.61 123.44 330.01 126.73 322.76 130.48 315.45 135.02 308.47 140.26 301.78 145.82 294.98 151.96 288.44 158.57 282.1 165.3 275.59 172.35 269.22 179.64 262.95 186.82 256.4 194.12 249.88 201.47 243.35 208.56 236.46 215.64 229.5 222.68 222.45 229.38 215.04 236.04 207.52 242.68 199.94 248.98 192.08 255.29 184.22 261.66 176.46 267.73 168.62 273.92 161.04 280.26 153.85 286.38 146.87 292.73 140.49 299.32 134.84 305.77 129.7 312.52 125.48 319.59 122.27 326.57 119.73 333.91 118.26 341.63 117.88 349.28 118.09 357.34 119.25 365.81 121.3 374.24 123.58 383.11 126.45 392.43 129.77" stroke-dasharray="1 1" transform="rotate(22.400000000000002, 400, 400)" opacity="0.53"></path><path d="M400.68 140.91C409.81 143.93 419.19 147.01 428.82 150.02 438.47 152.44 448.38 154.66 458.53 156.63 468.73 157.93 479.17 159.04 489.82 159.99 500.51 160.43 511.37 160.9 522.34 161.49 533.28 161.85 544.24 162.56 555.11 163.68 565.8 164.89 576.25 166.7 586.29 169.15 595.93 171.91 604.94 175.4 613.15 179.61 620.67 184.23 627.15 189.57 632.42 195.58 636.78 201.97 639.78 208.97 641.32 216.49 641.92 224.32 641.09 232.58 638.9 241.19 636.07 250 632.17 259.08 627.44 268.35 622.74 277.73 617.76 287.24 612.85 296.83 608.88 306.46 605.64 316.14 603.46 325.81 603.04 335.51 604.15 345.18 606.93 354.81 611.79 364.44 618.32 374.02 626.36 383.51 635.97 393.01 646.49 402.42 657.47 411.69 668.74 420.96 679.2 429.87 688.37 438.38 696.41 446.88 702.4 454.97 706.09 462.61 707.88 470.21 707.16 477.34 704.02 483.98 698.98 490.56 691.83 496.64 682.88 502.21 672.65 507.73 661.22 512.76 648.95 517.33 636.29 521.93 623.39 526.14 610.56 530.04 598.08 534.12 586.06 538.03 574.67 541.87 564.05 546.13 554.19 550.51 545.1 555.14 536.88 560.43 529.34 566.15 522.41 572.39 516.21 579.44 510.42 587.08 504.91 595.32 499.9 604.29 494.96 613.73 489.98 623.5 485.27 633.61 480.34 643.69 475.13 653.46 470.01 662.9 464.49 671.53 458.54 679.02 452.59 685.44 446.16 690.27 439.22 693.27 432.26 694.76 424.79 694.26 416.83 691.76 408.84 687.9 400.37 682.34 391.45 675.35 382.52 667.79 373.38 659.68 364.09 651.44 354.83 643.73 345.44 636.52 336 630.08 326.63 624.9 317.24 620.76 307.91 617.67 298.69 615.98 289.57 615.2 280.62 615.17 271.84 616.15 263.3 617.47 255.06 618.89 247.05 620.71 239.4 622.18 232.19 623.12 225.26 623.88 218.8 623.79 212.88 622.75 207.24 621.19 202.16 618.56 197.64 614.9 193.37 610.6 189.63 605.31 186.43 599.13 183.36 592.41 180.73 584.92 178.52 576.81 176.26 568.32 174.29 559.36 172.57 550.05 170.6 540.53 168.75 530.79 166.98 520.93 164.8 510.98 162.61 500.99 160.4 491.03 157.71 481.05 154.99 471.14 152.25 461.34 149.11 451.55 146.02 441.89 143.08 432.38 139.92 422.88 137.04 413.53 134.56 404.36 132.15 395.19 130.38 386.39 129.3 377.97 128.54 369.53 128.6 361.45 129.49 353.72 130.84 345.95 133.06 338.51 136.11 331.37 139.61 324.17 143.9 317.23 148.88 310.55 154.21 303.74 160.13 297.13 166.54 290.68 173.1 284.04 180.02 277.49 187.21 271.01 194.35 264.26 201.64 257.5 209.02 250.71 216.19 243.61 223.38 236.44 230.56 229.19 237.44 221.64 244.3 214.04 251.12 206.41 257.63 198.58 264.15 190.82 270.69 183.21 276.95 175.61 283.29 168.32 289.75 161.46 295.98 154.87 302.39 148.9 309.01 143.68 315.46 138.97 322.18 135.15 329.19 132.32 336.09 130.12 343.32 128.93 350.9 128.77 358.41 129.14 366.31 130.4 374.6 132.49 382.86 134.79 391.55 137.63 400.67 140.9" stroke-dasharray="1 9" transform="rotate(26.133333333333333, 400, 400)" opacity="0.51"></path><path d="M408.88 152.04C417.8 155.03 426.95 158.08 436.31 161.07 445.69 163.52 455.29 165.79 465.08 167.84 474.9 169.26 484.9 170.48 495.03 171.56 505.16 172.13 515.37 172.69 525.59 173.33 535.73 173.71 545.78 174.36 555.63 175.35 565.24 176.36 574.51 177.88 583.27 179.97 591.61 182.29 599.25 185.26 606.04 188.89 612.18 192.86 617.29 197.52 621.25 202.8 624.4 208.45 626.31 214.68 626.92 221.45 626.77 228.51 625.4 236.04 622.89 243.93 619.95 252.05 616.19 260.47 611.81 269.11 607.63 277.9 603.34 286.85 599.24 295.91 596.13 305.04 593.76 314.24 592.42 323.46 592.72 332.71 594.41 341.96 597.62 351.15 602.67 360.37 609.19 369.53 617.02 378.59 626.23 387.65 636.22 396.61 646.58 405.41 657.21 414.22 667.09 422.65 675.8 430.68 683.55 438.7 689.45 446.31 693.31 453.49 695.48 460.63 695.38 467.34 693.07 473.59 689.01 479.81 682.96 485.59 675.18 490.92 666.14 496.26 655.86 501.19 644.65 505.76 632.92 510.42 620.78 514.8 608.54 518.98 596.43 523.39 584.59 527.74 573.18 532.11 562.34 536.91 552.1 541.9 542.5 547.19 533.63 553.08 525.38 559.4 517.7 566.2 510.68 573.69 504.09 581.69 497.85 590.16 492.09 599.2 486.5 608.57 480.98 618.1 475.74 627.82 470.43 637.38 464.94 646.51 459.6 655.24 453.97 663.1 448.03 669.82 442.12 675.51 435.83 679.68 429.13 682.15 422.43 683.23 415.3 682.5 407.74 679.94 400.17 676.17 392.18 670.85 383.79 664.21 375.4 657.07 366.83 649.38 358.14 641.52 349.48 634.12 340.74 627.11 331.96 620.73 323.25 615.46 314.56 611.08 305.95 607.64 297.45 605.46 289.08 604.12 280.91 603.5 272.9 603.86 265.14 604.61 257.7 605.56 250.48 606.97 243.62 608.19 237.2 609.04 228.16 609.91 212.89 607.36 206.72 603.54 202.96 600.17 199.68 595.88 196.88 590.73 194.14 585.1 191.79 578.71 189.8 571.67 187.7 564.26 185.84 556.33 184.18 547.98 182.24 539.4 180.38 530.53 178.57 521.45 176.35 512.26 174.11 502.95 171.82 493.6 169.07 484.2 166.28 474.81 163.48 465.48 160.28 456.15 157.15 446.89 154.15 437.75 150.94 428.62 148.01 419.6 145.46 410.73 142.97 401.85 141.1 393.32 139.9 385.13 139.01 376.92 138.9 369.03 139.6 361.45 140.74 353.82 142.71 346.48 145.5 339.4 148.74 332.25 152.75 325.31 157.45 318.58 162.51 311.71 168.17 305 174.34 298.4 180.69 291.61 187.43 284.88 194.47 278.18 201.51 271.24 208.74 264.28 216.1 257.28 223.3 250.01 230.56 242.69 237.83 235.32 244.85 227.71 251.87 220.08 258.86 212.5 265.57 204.78 272.29 197.19 279.01 189.81 285.47 182.51 291.99 175.56 298.59 169.09 304.97 162.92 311.5 157.39 318.18 152.61 324.71 148.33 331.46 144.93 338.45 142.47 345.34 140.59 352.51 139.67 360 139.71 367.42 140.23 375.2 141.59 383.34 143.71 391.45 146 399.95 148.82 408.87 152.04" stroke-dasharray="8 11" transform="rotate(29.866666666666667, 400, 400)" opacity="0.20"></path><path d="M416.5 163.18C425.19 166.11 434.06 169.12 443.09 172.09 452.13 174.56 461.34 176.88 470.67 179 480.01 180.53 489.46 181.88 498.95 183.08 508.41 183.78 517.87 184.46 527.23 185.17 536.47 185.6 545.53 186.23 554.28 187.14 562.78 188.01 570.83 189.31 578.33 191.1 585.38 193.04 591.72 195.56 597.2 198.67 604.03 204.07 611.45 218.35 611.84 227.11 611.16 233.41 609.45 240.17 606.81 247.32 603.94 254.7 600.45 262.4 596.53 270.36 592.94 278.48 589.37 286.79 586.09 295.25 583.8 303.8 582.26 312.44 581.7 321.12 582.65 329.85 584.86 338.6 588.41 347.31 593.6 356.05 600.07 364.73 607.67 373.32 616.47 381.92 625.93 390.41 635.69 398.75 645.68 407.09 654.99 415.06 663.26 422.66 670.69 430.24 676.49 437.44 680.45 444.24 682.94 451.02 683.38 457.4 681.81 463.38 678.66 469.35 673.64 474.95 666.97 480.18 659.1 485.45 649.96 490.41 639.84 495.1 629.12 499.92 617.86 504.57 606.33 509.1 594.77 513.9 583.3 518.71 572.07 523.62 561.24 528.95 550.84 534.51 540.96 540.37 531.64 546.79 522.86 553.59 514.6 560.81 506.91 568.61 499.65 576.81 492.75 585.36 486.31 594.33 480.09 603.49 474.03 612.68 468.27 621.92 462.51 630.89 456.7 639.35 451.06 647.33 445.25 654.43 439.22 660.4 433.26 665.4 427.02 668.96 420.48 670.93 413.94 671.65 407.07 670.71 399.86 668.12 392.64 664.45 385.08 659.37 377.19 653.08 369.3 646.33 361.28 639.06 353.19 631.6 345.12 624.5 337.01 617.71 328.91 611.43 320.88 606.11 312.89 601.56 305.01 597.81 297.24 595.2 289.63 593.36 282.24 592.19 275 591.96 268.02 592.15 261.38 592.58 251.87 593.99 235.17 595.92 228.1 595.63 221.78 594.29 211.64 587.04 207.73 581.09 205.26 576.45 203.12 571.07 201.28 565.04 199.29 558.67 197.49 551.74 195.85 544.36 193.9 536.74 192.01 528.77 190.14 520.53 187.86 512.15 185.54 503.59 183.17 494.92 180.36 486.19 177.51 477.4 174.64 468.6 171.4 459.79 168.22 451 165.17 442.27 161.93 433.54 158.96 424.89 156.35 416.33 153.81 407.77 151.85 399.5 150.54 391.53 149.52 383.53 149.25 375.81 149.76 368.35 150.68 360.85 152.42 353.57 154.93 346.52 157.89 339.38 161.6 332.42 166 325.61 170.76 318.67 176.12 311.84 182 305.09 188.1 298.17 194.61 291.27 201.44 284.39 208.33 277.3 215.44 270.18 222.71 263.03 229.89 255.67 237.15 248.27 244.46 240.86 251.57 233.28 258.69 225.72 265.81 218.26 272.69 210.74 279.58 203.4 286.46 196.32 293.12 189.37 299.81 182.82 306.56 176.78 313.11 171.06 319.77 165.99 326.55 161.66 333.18 157.82 339.99 154.82 347 152.72 353.91 151.16 361.07 150.49 368.49 150.72 375.86 151.38 383.53 152.81 391.52 154.95 399.49 157.24 407.81 160.02 416.49 163.17" stroke-dasharray="1 4" transform="rotate(33.6, 400, 400)" opacity="0.64"></path><path d="M423.05 174.31C431.47 177.19 440.01 180.16 448.65 183.09 457.29 185.58 466.03 187.93 474.83 190.11 483.61 191.74 492.42 193.21 501.19 194.54 509.9 195.38 518.51 196.18 526.95 196.99 535.24 197.5 543.26 198.16 550.9 199.03 558.28 199.82 565.16 200.96 571.43 202.5 579.86 205.21 591.92 213.54 595.22 219.24 596.73 225.89 594.33 242.12 590.81 251.52 588.14 258.14 585.03 265.1 581.66 272.34 578.7 279.74 575.88 287.37 573.41 295.16 571.91 303.06 571.15 311.08 571.29 319.18 572.82 327.33 575.47 335.52 579.3 343.69 584.58 351.9 590.96 360.08 598.31 368.17 606.69 376.28 615.62 384.3 624.79 392.18 634.17 400.06 642.93 407.6 650.74 414.81 657.85 422 663.5 428.85 667.52 435.34 670.27 441.83 671.17 447.97 670.25 453.77 667.93 459.6 663.87 465.12 658.26 470.35 651.5 475.65 643.5 480.73 634.49 485.62 624.81 490.67 614.5 495.63 603.8 500.55 592.94 505.75 582 511.03 571.15 516.43 560.53 522.25 550.19 528.3 540.23 534.63 530.69 541.45 521.59 548.61 512.93 556.11 504.74 564.07 496.95 572.33 489.52 580.82 482.5 589.59 475.74 598.42 469.18 607.17 462.91 615.86 456.74 624.18 450.59 631.93 444.61 639.17 438.57 645.52 432.42 650.77 426.35 655.1 420.1 658.09 413.65 659.61 407.21 660.01 400.54 658.9 393.62 656.29 386.69 652.73 379.51 647.89 372.07 641.95 364.64 635.59 357.14 628.73 349.63 621.66 342.13 614.88 334.64 608.33 327.21 602.18 319.82 596.86 312.53 592.18 305.39 588.19 298.33 585.21 291.46 582.92 284.83 581.25 275.21 580.27 257.77 580.73 250.11 581.33 237.22 581.39 222.43 575.17 218.93 570.34 215.67 564.3 210.11 548.55 207.55 539.11 205.57 532.44 203.61 525.36 201.66 517.97 199.3 510.44 196.89 502.66 194.44 494.71 191.56 486.68 188.64 478.54 185.71 470.32 182.44 462.08 179.23 453.8 176.15 445.53 172.89 437.25 169.9 428.98 167.25 420.76 164.66 412.54 162.63 404.55 161.22 396.79 160.08 389.02 159.67 381.46 159.98 374.11 160.69 366.72 162.18 359.51 164.42 352.46 167.09 345.34 170.48 338.35 174.55 331.47 178.98 324.48 184.01 317.55 189.57 310.67 195.37 303.65 201.59 296.63 208.17 289.62 214.85 282.43 221.78 275.23 228.89 268.01 235.98 260.63 243.18 253.25 250.45 245.89 257.59 238.42 264.76 231.03 271.95 223.77 278.94 216.53 285.95 209.51 292.96 202.8 299.77 196.26 306.62 190.15 313.5 184.56 320.2 179.32 326.99 174.72 333.86 170.85 340.6 167.44 347.48 164.84 354.52 163.08 361.47 161.82 368.61 161.39 375.98 161.79 383.29 162.58 390.86 164.07 398.69 166.21 406.51 168.49 414.62 171.22 423.04 174.31" stroke-dasharray="11 11" transform="rotate(37.33333333333333, 400, 400)" opacity="0.40"></path><path d="M428.1 185.44C436.21 188.27 444.37 191.17 452.56 194.07 460.76 196.56 468.97 198.93 477.16 201.17 485.33 202.9 493.43 204.48 501.42 205.93 509.34 206.92 517.08 207.85 524.57 208.77 531.9 209.38 538.89 210.09 545.45 210.98 554.63 212.24 569.48 216.46 574.79 219.66 578.64 223.56 581.44 234.18 580.46 240.86 579.27 245.69 577.43 250.97 575.03 256.64 572.68 262.51 570.04 268.72 567.27 275.24 564.99 281.9 562.91 288.82 561.22 295.93 560.47 303.14 560.41 310.5 561.19 317.97 563.22 325.5 566.24 333.09 570.29 340.7 575.61 348.35 581.86 355.99 588.93 363.58 596.89 371.18 605.3 378.72 613.9 386.16 622.68 393.6 630.89 400.75 638.25 407.6 645.02 414.44 650.5 421 654.54 427.25 658.12 436.5 655.25 453.71 649.03 461.77 643.34 467.16 636.43 472.41 628.52 477.55 619.92 482.86 610.62 488.15 600.83 493.45 590.77 499.03 580.51 504.71 570.2 510.56 559.98 516.76 549.89 523.19 540.06 529.88 530.52 536.97 521.3 544.34 512.44 551.97 503.95 559.95 495.8 568.12 488 576.41 480.54 584.87 473.34 593.28 466.38 601.5 459.68 609.58 453.13 617.22 446.67 624.24 440.38 630.74 434.11 636.36 427.81 640.92 421.61 644.62 415.31 647.08 408.91 648.2 402.53 648.31 396.01 647.06 389.33 644.45 382.65 641.01 375.79 636.42 368.77 630.81 361.75 624.84 354.74 618.38 347.77 611.7 340.8 605.26 333.9 598.96 327.1 592.97 320.34 587.69 313.71 582.93 307.26 578.76 300.88 575.48 294.7 572.79 288.79 570.67 280.21 568.92 264.79 567.88 258.06 567.92 246.73 567.66 233.61 562.61 230.41 558.66 227.34 553.71 221.87 540.42 219.23 532.27 217.19 526.48 215.14 520.27 213.09 513.7 210.65 507 208.15 500 205.6 492.78 202.67 485.48 199.69 478 196.71 470.39 193.41 462.75 190.18 455.02 187.08 447.22 183.83 439.42 180.82 431.57 178.14 423.71 175.52 415.84 173.44 408.14 171.95 400.62 170.7 393.08 170.14 385.69 170.27 378.46 170.77 371.2 172.01 364.06 173.97 357.04 176.34 349.96 179.4 342.96 183.12 336.04 187.21 329.02 191.88 322.04 197.07 315.09 202.53 308.02 208.43 300.95 214.7 293.88 221.1 286.68 227.78 279.48 234.69 272.28 241.6 264.98 248.67 257.7 255.83 250.49 262.92 243.23 270.07 236.08 277.25 229.12 284.3 222.22 291.36 215.59 298.43 209.3 305.35 203.22 312.3 197.58 319.26 192.48 326.09 187.73 332.96 183.61 339.91 180.19 346.74 177.21 353.67 174.99 360.72 173.56 367.69 172.58 374.81 172.38 382.11 172.93 389.35 173.82 396.8 175.36 404.46 177.51 412.1 179.76 419.97 182.43 428.09 185.44" stroke-dasharray="3 3" transform="rotate(41.06666666666666, 400, 400)" opacity="0.12"></path><path d="M431.31 196.58C439.07 199.33 446.82 202.17 454.52 205.02 462.22 207.5 469.86 209.9 477.4 212.17 484.92 213.98 492.29 215.67 499.49 217.24 506.6 218.37 513.46 219.44 520.01 220.49 529.41 221.61 545.65 224.19 552.19 225.95 561.02 231.05 565.8 243.22 564.55 249 562.53 255.48 556.61 270.66 553.43 279.21 551.82 285.15 550.47 291.35 549.52 297.77 549.46 304.29 550.04 310.98 551.38 317.81 553.83 324.69 557.16 331.67 561.37 338.71 566.67 345.78 572.77 352.87 579.53 359.96 587.07 367.05 594.97 374.12 603 381.13 611.2 388.14 618.87 394.92 625.78 401.46 632.2 408 637.49 414.3 641.5 420.37 645.38 429.38 644.21 446.48 639.3 454.68 634.6 460.2 628.75 465.63 621.91 471.02 614.38 476.58 606.11 482.17 597.29 487.81 588.13 493.7 578.66 499.72 569.02 505.9 559.36 512.39 549.71 519.08 540.19 525.99 530.84 533.22 521.71 540.65 512.85 548.26 504.25 556.12 495.94 564.07 487.93 572.05 480.19 580.08 472.7 587.98 465.45 595.61 458.43 603.03 451.59 609.97 444.88 616.26 438.34 622.03 431.87 626.94 425.44 630.85 419.11 633.97 412.77 635.95 406.39 636.69 400.06 636.56 393.66 635.19 387.18 632.61 380.71 629.3 374.15 624.95 367.51 619.68 360.86 614.08 354.29 608.02 347.81 601.73 341.34 595.62 334.98 589.59 328.77 583.8 322.58 578.59 316.56 573.8 310.75 569.51 302.22 564.48 286.54 557.99 279.5 556.22 267.21 555.12 252.37 553.4 248.62 551.79 242.13 545.86 233.61 530.94 230.86 523.94 228.72 518.94 226.58 513.52 224.41 507.73 221.88 501.81 219.29 495.57 216.66 489.05 213.66 482.47 210.64 475.66 207.62 468.66 204.31 461.63 201.08 454.45 197.97 447.15 194.73 439.85 191.72 432.44 189.04 424.96 186.4 417.47 184.28 410.09 182.71 402.82 181.37 395.53 180.68 388.35 180.63 381.27 180.94 374.16 181.93 367.12 183.61 360.17 185.67 353.16 188.4 346.2 191.76 339.28 195.48 332.3 199.77 325.32 204.57 318.37 209.66 311.33 215.18 304.29 221.09 297.26 227.16 290.13 233.54 283.02 240.15 275.95 246.83 268.81 253.69 261.74 260.67 254.76 267.63 247.8 274.67 240.99 281.76 234.39 288.77 227.91 295.82 221.72 302.88 215.9 309.83 210.31 316.81 205.17 323.8 200.58 330.68 196.32 337.61 192.68 344.57 189.7 351.44 187.14 358.38 185.28 365.41 184.17 372.36 183.45 379.43 183.44 386.62 184.13 393.77 185.11 401.07 186.69 408.51 188.82 415.94 191.04 423.54 193.65 431.3 196.57" stroke-dasharray="1 0" transform="rotate(44.800000000000004, 400, 400)" opacity="0.70"></path><path d="M432.49 207.71C439.86 210.39 447.15 213.16 454.33 215.95 461.5 218.41 468.55 220.81 475.43 223.12 482.28 225 488.92 226.78 495.33 228.46 504.66 230.33 521.41 233.42 528.6 234.88 544.64 241.53 550.04 252.95 548.78 257.95 547.04 263.55 542.42 276.8 540.18 284.34 538.91 292.35 539.45 309.71 541.85 318.92 544.66 325.17 548.21 331.54 552.51 338 557.76 344.5 563.67 351.05 570.12 357.64 577.23 364.24 584.63 370.85 592.11 377.45 599.74 384.06 606.88 390.49 613.35 396.75 619.41 403 624.48 409.09 628.42 415 632.51 423.83 632.81 440.9 629.07 449.24 625.3 454.87 620.44 460.48 614.62 466.09 608.14 471.86 600.91 477.68 593.08 483.59 584.88 489.71 576.28 495.96 567.43 502.36 558.46 509.01 549.4 515.83 540.35 522.81 531.38 530.02 522.53 537.38 513.85 544.83 505.35 552.44 497.06 560.05 489.01 567.61 481.16 575.13 473.55 582.45 466.15 589.44 458.94 596.17 451.92 602.39 445.06 607.97 438.34 613.03 431.74 617.27 425.23 620.57 418.81 623.15 412.44 624.69 406.11 625.11 399.82 624.76 393.53 623.31 387.24 620.76 380.96 617.59 374.66 613.48 368.35 608.54 362.04 603.31 355.86 597.64 349.84 591.73 343.81 585.97 337.94 580.23 332.26 574.65 326.59 569.55 321.12 564.79 315.87 560.42 308.17 555.08 294.15 547.5 287.9 545.06 276.95 542.68 263.61 539.83 260.16 538.25 253.91 533.09 245.27 520.35 242.37 514.31 239 507.64 231.63 492.2 227.59 483.59 224.55 477.68 221.49 471.51 218.44 465.11 215.14 458.68 211.91 452.06 208.82 445.26 205.6 438.46 202.61 431.51 199.93 424.42 197.3 417.34 195.15 410.29 193.52 403.3 192.1 396.3 191.28 389.35 191.07 382.45 191.18 375.54 191.94 368.66 193.34 361.82 195.1 354.94 197.49 348.08 200.48 341.24 203.81 334.36 207.7 327.47 212.1 320.61 216.77 313.68 221.89 306.76 227.39 299.86 233.08 292.91 239.09 285.99 245.36 279.13 251.73 272.26 258.3 265.48 265.02 258.84 271.76 252.25 278.61 245.84 285.54 239.69 292.42 233.67 299.36 227.97 306.33 222.65 313.23 217.58 320.16 212.97 327.1 208.88 333.96 205.12 340.85 201.94 347.77 199.4 354.62 197.23 361.52 195.73 368.46 194.9 375.35 194.42 382.31 194.59 389.35 195.4 396.36 196.46 403.46 198.06 410.64 200.16 417.83 202.34 425.11 204.87 432.48 207.71" stroke-dasharray="9 7" transform="rotate(48.53333333333333, 400, 400)" opacity="0.23"></path><path d="M431.55 218.85C438.5 221.44 445.31 224.13 451.95 226.86 458.57 229.29 465.01 231.68 471.24 234 480.4 236.88 497.22 241.65 504.7 243.63 523.87 249.14 534.24 256.47 534.63 259.68 533.21 267.91 528.86 284.04 527.56 290.67 527.24 297.72 529.53 313.18 532.58 321.47 535.67 327.11 539.39 332.89 543.73 338.8 548.88 344.74 554.57 350.77 560.69 356.88 567.37 363 574.27 369.17 581.22 375.39 588.29 381.61 594.92 387.71 600.95 393.7 606.65 399.7 611.47 405.58 615.31 411.36 619.53 420.02 621.05 437.04 618.37 445.49 615.43 451.21 611.49 456.94 606.64 462.71 601.17 468.61 594.96 474.59 588.13 480.66 580.9 486.9 573.23 493.27 565.24 499.76 557.06 506.43 548.71 513.24 540.29 520.15 531.85 527.22 523.43 534.36 515.11 541.53 506.88 548.77 498.79 555.95 490.88 562.99 483.11 569.94 475.53 576.63 468.14 582.94 460.89 588.97 453.82 594.48 446.92 599.35 440.13 603.73 433.48 607.34 426.96 610.07 420.52 612.16 414.17 613.3 407.9 613.44 401.68 612.91 395.52 611.4 389.41 608.91 383.32 605.89 377.26 602.03 371.26 597.41 365.25 592.53 359.43 587.25 353.8 581.72 348.17 576.3 342.74 570.86 337.51 565.52 332.3 560.58 327.3 555.88 322.55 551.5 315.56 545.94 302.93 537.45 297.33 534.4 281.31 528.67 268.68 522.94 265.79 520.31 259.79 513.07 250.2 497.83 246.62 491.27 243.91 486.69 241.16 481.76 238.38 476.53 235.31 471.24 232.22 465.67 229.17 459.84 225.88 453.98 222.68 447.9 219.61 441.6 216.44 435.3 213.49 428.81 210.82 422.14 208.21 415.47 206.05 408.79 204.37 402.11 202.89 395.43 201.96 388.76 201.6 382.1 201.53 375.42 202.06 368.75 203.19 362.09 204.65 355.41 206.7 348.72 209.32 342.05 212.26 335.35 215.74 328.64 219.7 321.95 223.94 315.23 228.62 308.52 233.68 301.85 238.95 295.17 244.54 288.54 250.41 282 256.4 275.48 262.61 269.08 269 262.85 275.44 256.7 282.01 250.76 288.68 245.1 295.35 239.59 302.09 234.42 308.88 229.64 315.63 225.09 322.42 221.01 329.22 217.42 335.98 214.15 342.76 211.43 349.55 209.3 356.3 207.51 363.07 206.32 369.86 205.76 376.62 205.5 383.42 205.83 390.24 206.74 397.05 207.85 403.91 209.46 410.79 211.53 417.67 213.65 424.6 216.1 431.54 218.84" stroke-dasharray="6 3" transform="rotate(52.266666666666666, 400, 400)" opacity="0.39"></path><path d="M428.56 229.98C435.06 232.48 441.36 235.09 447.46 237.74 453.54 240.12 459.39 242.5 464.99 244.82 476.07 248.45 485.96 251.83 494.4 255.01 505.58 258.12 518.01 265.45 519.18 271 519.32 275.1 518.27 280.47 516.58 287.07 516.12 293.93 516.16 301.99 517.37 311.05 521.22 320.32 527.07 330.45 535 341.21 540.01 346.62 545.45 352.16 551.24 357.81 557.49 363.47 563.9 369.23 570.32 375.08 576.86 380.93 582.99 386.73 588.58 392.46 593.91 398.2 598.47 403.9 602.18 409.53 607.9 420.88 609.55 432.15 607.21 443.39 602.16 454.96 593.62 466.77 582.37 478.85 569.51 491.48 555.03 504.52 539.74 517.82 524.14 531.48 508.47 545.08 493.18 558.09 478.23 570.57 463.82 581.59 450.09 590.4 436.71 597.39 423.85 601.31 411.52 601.71 405.4 601.03 399.39 599.48 393.47 597.07 387.57 594.19 381.76 590.57 376.03 586.27 370.31 581.75 364.81 576.85 359.53 571.7 354.25 566.62 349.19 561.49 344.36 556.41 334.7 547.28 325.99 539.01 318.32 531.91 310.63 526.81 303.98 522.66 298.38 519.17 290.21 515.86 277.18 507.6 271.45 500.88 266.79 495.8 262.15 489.24 257.46 481.29 251.61 473.12 245.66 463.65 239.79 453.07 236.55 447.75 233.39 442.17 230.36 436.36 227.25 430.55 224.35 424.51 221.72 418.27 219.14 412.03 216.98 405.73 215.27 399.41 213.73 393.08 212.71 386.73 212.21 380.35 212.01 367.59 214.09 354.73 218.3 341.89 223.7 329 231.06 316.12 240.03 303.43 249.82 290.81 260.84 278.53 272.71 266.93 284.91 255.75 297.65 245.6 310.65 236.9 323.66 229.13 336.83 223.2 350 219.41 363.1 216.81 376.26 216.38 389.36 218.14 395.91 219.29 402.46 220.9 408.99 222.92 415.53 224.97 422.06 227.34 428.55 229.98" stroke-dasharray="6 7" transform="rotate(56, 400, 400)" opacity="0.35"></path><path d="M423.71 241.11C435.76 245.76 446.88 250.68 456.93 255.57 466.85 259.3 475.53 262.85 482.77 266.23 492.37 269.76 502.91 277.37 504.12 282.59 504.64 286.27 504.32 291.05 503.64 296.91 504.21 302.91 505.37 310.01 507.6 318.1 512.16 326.32 518.4 335.41 526.33 345.23 536.5 355.09 547.8 365.57 559.43 376.56 571.44 387.55 581.56 398.54 589.04 409.48 594.75 420.49 596.94 431.6 595.62 442.78 591.98 454.23 585.15 465.96 575.74 477.93 564.8 490.29 552.15 502.92 538.48 515.63 524.34 528.46 509.86 541.03 495.51 552.83 481.29 563.97 467.43 573.61 454.14 581.1 441.09 586.95 428.54 590 416.56 589.9 404.7 587.85 393.27 582.84 382.37 575.14 371.47 566.66 361.52 557.11 352.54 547.31 343.53 538.52 335.47 530.33 328.41 523.04 321.27 517.45 315.08 512.66 309.81 508.49 301.96 504.12 288.8 494.86 282.72 488.39 277.85 483.72 272.98 477.78 268.08 470.61 262.15 463.29 256.17 454.76 250.32 445.13 243.8 435.42 237.76 424.71 232.61 413.09 227.63 401.48 224.35 389.55 222.91 377.49 222.38 365.44 223.93 353.23 227.45 341.03 232.06 328.85 238.52 316.71 246.52 304.82 255.33 293.09 265.37 281.79 276.3 271.22 287.63 261.13 299.57 252.1 311.83 244.5 324.19 237.77 336.75 232.77 349.32 229.74 361.88 227.74 374.45 227.69 386.88 229.6 399.33 232.07 411.66 236 423.7 241.11" stroke-dasharray="1 2" transform="rotate(59.733333333333334, 400, 400)" opacity="0.87"></path><path d="M417.32 252.25C428.4 256.7 438.49 261.46 447.46 266.25 456.34 270.04 463.98 273.73 470.26 277.28 478.65 281.2 488.11 289.25 489.68 294.31 490.95 299.9 494.12 315.85 498.28 326.26 503.38 333.58 509.87 341.78 517.69 350.74 527.35 359.72 537.86 369.4 548.53 379.71 559.54 390.02 568.86 400.49 575.89 411.03 581.51 421.66 584.1 432.47 583.63 443.43 581.21 454.59 575.92 466.03 568.23 477.64 559.13 489.48 548.3 501.47 536.33 513.36 523.78 525.2 510.68 536.61 497.49 547.12 484.27 556.91 471.23 565.2 458.6 571.47 446.12 576.26 434.07 578.53 422.57 578.02 411.16 575.88 400.22 571.13 389.85 564.01 379.48 556.21 370.09 547.38 361.68 538.21 353.21 529.82 345.66 521.81 339.05 514.46 332.31 508.52 326.43 503.23 321.35 498.49 315.99 494.89 311.26 491.37 307.08 487.69 302.35 484.55 297.91 480.78 293.67 476.2 288.61 471.72 283.55 466.2 278.47 459.61 272.51 452.96 266.54 445.2 260.75 436.41 254.4 427.56 248.53 417.72 243.51 406.98 238.63 396.24 235.33 385.13 233.71 373.85 232.87 362.6 233.93 351.18 236.8 339.78 240.64 328.44 246.19 317.19 253.21 306.25 261 295.53 270.01 285.3 279.91 275.85 290.26 266.9 301.25 259 312.62 252.48 324.17 246.76 335.95 242.62 347.75 240.29 359.61 238.83 371.44 239.11 383.09 241.14 394.77 243.6 406.24 247.38 417.32 252.25" stroke-dasharray="8 8" transform="rotate(63.46666666666667, 400, 400)" opacity="0.88"></path><path d="M409.8 263.38C419.9 267.63 429.01 272.21 437.04 276.87 444.99 280.68 451.77 284.46 457.32 288.15 464.84 292.44 473.9 301 476.06 306.03 478.32 311.35 484.11 325.92 489.39 335.33 494.87 341.91 501.46 349.34 509.08 357.53 518.19 365.73 527.9 374.67 537.64 384.31 547.66 393.95 556.19 403.86 562.75 413.94 568.2 424.07 571.05 434.46 571.27 445.02 569.88 455.71 565.95 466.63 559.83 477.65 552.45 488.78 543.38 499.93 533.12 510.82 522.23 521.55 510.63 531.7 498.76 540.89 486.75 549.36 474.73 556.37 462.98 561.49 451.28 565.33 439.91 566.93 429.02 566.09 418.2 563.9 407.82 559.43 398 552.87 388.17 545.74 379.3 537.63 371.36 529.1 363.35 521.18 356.21 513.43 349.91 506.14 343.47 500 337.76 494.35 332.75 489.16 327.44 484.97 322.64 480.91 318.29 476.78 313.4 473.21 308.75 469.2 304.26 464.58 299.03 460.15 293.81 454.88 288.62 448.71 282.67 442.55 276.76 435.42 271.08 427.35 264.93 419.26 259.27 410.24 254.4 400.37 249.67 390.49 246.38 380.25 244.61 369.84 243.51 359.46 244.12 348.93 246.37 338.46 249.46 328.09 254.14 317.85 260.18 307.97 266.95 298.34 274.87 289.25 283.69 280.96 292.96 273.15 302.91 266.37 313.27 260.89 323.86 256.11 334.71 252.78 345.6 251.07 356.6 250.08 367.57 250.64 378.33 252.73 389.14 255.16 399.69 258.77 409.8 263.38" stroke-dasharray="9 9" transform="rotate(67.2, 400, 400)" opacity="0.88"></path><path d="M401.64 274.52C410.79 278.54 418.99 282.91 426.19 287.41 433.33 291.2 439.43 295.02 444.45 298.8 451.39 303.4 460.55 312.5 463.44 317.59 466.68 322.79 474.75 336.39 480.89 345.02 486.6 351 493.17 357.77 500.49 365.29 509 372.8 517.91 381.06 526.75 390.04 535.82 399.02 543.57 408.31 549.63 417.83 554.83 427.38 557.83 437.2 558.58 447.18 558.04 457.23 555.28 467.46 550.56 477.69 544.75 487.92 537.34 498.06 528.73 507.83 519.5 517.35 509.47 526.23 499.02 534.1 488.35 541.29 477.52 547.09 466.79 551.18 456.06 554.17 445.53 555.2 435.38 554.11 425.27 551.91 415.52 547.74 406.27 541.74 397.02 535.25 388.64 527.85 381.11 519.99 373.51 512.57 366.69 505.18 360.62 498.07 354.38 491.86 348.78 486 343.76 480.5 338.43 475.85 333.53 471.33 328.99 466.81 323.96 462.82 319.11 458.54 314.41 453.82 309.07 449.32 303.75 444.17 298.5 438.31 292.62 432.5 286.83 425.88 281.3 418.45 275.4 411.01 269.97 402.75 265.29 393.73 260.74 384.7 257.49 375.36 255.61 365.87 254.29 356.42 254.5 346.87 256.18 337.42 258.58 328.08 262.41 318.94 267.51 310.19 273.25 301.7 280.09 293.77 287.79 286.64 295.93 279.96 304.76 274.26 314.02 269.75 323.53 265.84 333.34 263.25 343.22 262.08 353.23 261.49 363.23 262.26 373.03 264.38 382.89 266.75 392.49 270.18 401.64 274.52" stroke-dasharray="3 11" transform="rotate(70.93333333333334, 400, 400)" opacity="0.39"></path><path d="M393.37 285.65C401.59 289.43 408.97 293.57 415.45 297.88 421.91 301.6 427.46 305.41 432.12 309.24 438.69 314.07 448.28 323.66 451.93 328.86 456.07 334.05 466.01 346.99 472.75 355 478.54 360.51 484.97 366.73 491.92 373.65 499.79 380.55 507.9 388.16 515.85 396.47 524 404.78 530.99 413.42 536.52 422.28 541.42 431.16 544.46 440.28 545.6 449.52 545.73 458.78 543.95 468.14 540.44 477.42 536.02 486.64 530.13 495.66 523.08 504.23 515.45 512.5 506.98 520.09 497.98 526.7 488.74 532.68 479.2 537.38 469.61 540.55 459.98 542.8 450.41 543.35 441.1 542.07 431.8 539.91 422.77 536.06 414.13 530.6 405.49 524.75 397.61 518.04 390.46 510.87 383.26 504 376.71 497.03 370.8 490.2 364.74 484.06 359.2 478.14 354.13 472.47 348.79 467.51 343.78 462.65 339.07 457.82 333.93 453.48 328.94 448.94 324.08 444.1 318.69 439.5 313.35 434.41 308.11 428.78 302.36 423.22 296.75 417.01 291.42 410.14 285.8 403.28 280.64 395.73 276.19 387.54 271.84 379.34 268.67 370.9 266.72 362.38 265.22 353.89 265.08 345.37 266.25 337 268.01 328.74 271.06 320.72 275.25 313.13 280 305.79 285.77 299.02 292.36 293.01 299.36 287.4 307.02 282.7 315.13 279.09 323.5 275.97 332.19 274.02 340.99 273.32 349.92 273.06 358.88 273.99 367.68 276.1 376.53 278.38 385.15 281.6 393.37 285.65" stroke-dasharray="9 6" transform="rotate(74.66666666666666, 400, 400)" opacity="0.99"></path><path d="M385.54 296.79C392.87 300.3 399.48 304.19 405.36 308.28 413.78 313.76 427.12 324.41 432.29 329.63 437.29 334.39 446.53 344.92 451.53 351.03 455.64 355.11 460.1 359.74 464.94 364.94 470.67 370.07 476.84 375.82 483.35 382.19 490.56 388.54 497.87 395.54 504.97 403.17 512.22 410.8 518.46 418.72 523.46 426.84 527.99 434.96 530.98 443.27 532.38 451.64 533.01 460 532.01 468.37 529.53 476.59 526.31 484.7 521.77 492.53 516.14 499.87 510.01 506.91 503.04 513.26 495.47 518.67 487.65 523.53 479.44 527.25 471.06 529.6 462.61 531.23 454.1 531.39 445.7 529.99 437.31 527.91 429.06 524.38 421.08 519.47 413.1 514.23 405.72 508.21 398.96 501.72 392.15 495.43 385.87 488.96 380.12 482.51 374.22 476.57 368.74 470.73 363.65 465.05 358.31 459.93 353.24 454.87 348.41 449.86 343.22 445.26 338.15 440.52 333.23 435.6 327.87 430.9 322.58 425.85 317.43 420.41 311.88 415.06 306.5 409.2 301.43 402.85 296.13 396.51 291.29 389.63 287.08 382.24 282.97 374.84 279.91 367.31 277.93 359.75 276.31 352.24 275.88 344.76 276.59 337.48 277.78 330.3 280.12 323.41 283.47 316.97 287.28 310.74 292.03 305.07 297.53 300.13 303.4 295.51 309.9 291.73 316.86 288.92 324.06 286.5 331.59 285.09 339.27 284.77 347.08 284.78 354.96 285.82 362.73 287.87 370.55 290.04 378.21 293.03 385.54 296.79" stroke-dasharray="2 2" transform="rotate(78.39999999999999, 400, 400)" opacity="0.41"></path><path d="M378.64 307.92C385.12 311.16 391.05 314.77 396.38 318.6 404.11 323.86 416.96 334.41 422.33 339.69 427.67 344.6 438.05 355.23 443.63 361.21 447.97 365.18 452.57 369.59 457.43 374.47 462.96 379.28 468.78 384.62 474.77 390.47 481.29 396.31 487.8 402.7 494.07 409.63 500.46 416.56 505.97 423.73 510.43 431.02 514.55 438.32 517.41 445.73 518.94 453.14 519.92 460.51 519.53 467.83 517.88 474.92 515.67 481.89 512.29 488.53 507.93 494.65 503.15 500.5 497.55 505.68 491.35 509.99 484.91 513.85 478.02 516.7 470.85 518.37 463.61 519.47 456.2 519.33 448.77 517.88 441.33 515.91 433.93 512.71 426.65 508.33 419.37 503.7 412.56 498.36 406.21 492.55 399.82 486.87 393.84 480.95 388.26 474.97 382.57 469.34 377.2 463.72 372.13 458.18 366.86 453.05 361.79 447.96 356.92 442.89 351.76 438.16 346.72 433.34 341.82 428.4 336.58 423.67 331.44 418.69 326.46 413.45 321.19 408.29 316.1 402.78 311.33 396.91 306.4 391.06 301.9 384.82 297.98 378.21 294.13 371.6 291.22 364.94 289.25 358.35 287.56 351.79 286.89 345.33 287.22 339.12 287.93 333 289.62 327.19 292.2 321.83 295.16 316.65 298.95 312.01 303.44 308.04 308.22 304.32 313.61 301.35 319.44 299.24 325.47 297.41 331.85 296.46 338.42 296.44 345.1 296.65 351.9 297.74 358.65 299.7 365.45 301.73 372.16 304.48 378.64 307.92" stroke-dasharray="2 4" transform="rotate(82.13333333333333, 400, 400)" opacity="0.42"></path><path d="M373.14 319.05C384.5 324.74 394.26 331.66 402.36 339.1 410.74 345.25 418.11 352.09 424.82 359.56 432.81 366.18 441.24 374.06 450.16 383.28 461.04 392.24 472.46 402.97 483.18 415.4 494.28 427.83 501.86 440.87 505.35 453.69 507.26 466.34 504.73 478.33 498.49 488.5 490.96 497.72 480.66 504.2 468.8 506.86 456.59 507.8 443.54 504.61 430.49 497.2 417.44 488.98 405.57 478.62 394.99 467.53 384.07 457.4 373.9 447.05 364.53 436.88 354.31 427.71 344.4 418.11 335.21 408.04 325.18 398.27 316.07 387.44 308.87 375.74 301.92 364.03 298.37 352.56 298.15 342.09 299.06 331.9 303.3 323.18 310.17 316.75 317.98 311.08 327.84 308.1 338.74 308.3 350.01 309.12 361.78 312.75 373.14 319.05" stroke-dasharray="2 2" transform="rotate(85.86666666666667, 400, 400)" opacity="0.57"></path><path d="M369.38 330.19C379.22 335.31 388.07 341.64 395.81 348.56 403.81 354.53 411.24 361.2 418.26 368.41 426.26 374.96 434.58 382.52 443.11 391.08 452.99 399.41 463.06 409.12 472.28 420.07 481.79 431.02 488.38 442.23 491.64 453 493.85 463.6 492.45 473.36 487.92 481.38 482.45 488.62 474.44 493.46 464.79 495.1 454.85 495.5 443.8 492.52 432.34 486.07 420.87 479 410.06 470 400.13 460.18 389.96 450.96 380.27 441.32 371.22 431.73 361.58 422.85 352.25 413.64 343.67 404.22 334.53 395.05 326.28 385.23 319.77 375 313.44 364.77 310.01 355.08 309.38 346.5 309.55 338.11 312.54 331.16 317.8 326.27 323.76 321.88 331.58 319.8 340.49 320.35 349.68 321.28 359.54 324.59 369.38 330.19" stroke-dasharray="9 8" transform="rotate(89.60000000000001, 400, 400)" opacity="0.66"></path><path d="M367.62 341.32C376.01 345.84 383.92 351.49 391.18 357.76 398.66 363.38 405.88 369.68 412.85 376.45 420.51 382.74 428.38 389.83 436.22 397.63 444.96 405.25 453.62 413.87 461.39 423.3 469.36 432.73 474.93 442.11 477.86 450.88 480.13 459.5 479.53 467.19 476.36 473.28 472.54 478.79 466.51 482.26 458.87 483.12 451.01 483.13 441.91 480.44 432.09 474.93 422.26 468.98 412.67 461.34 403.6 452.87 394.38 444.74 385.42 436.07 376.98 427.34 368.16 419.07 359.64 410.54 351.85 401.97 343.73 393.57 336.43 384.84 330.66 376.06 325.03 367.27 321.82 359.24 320.91 352.34 321.52 342.87 333.73 332.51 343.84 332.57 351.13 333.52 359.22 336.45 367.62 341.32" stroke-dasharray="2 2" transform="rotate(93.33333333333334, 400, 400)" opacity="0.95"></path><path d="M367.96 352.46C374.96 356.32 381.86 361.22 388.45 366.72 395.2 371.8 401.91 377.52 408.45 383.65 415.45 389.47 422.55 395.89 429.46 402.78 436.92 409.56 444.14 416.99 450.5 424.87 456.99 432.74 461.55 440.32 464.05 447.2 466.13 456.88 459.21 469.45 451.16 470.94 445.14 470.71 437.89 468.36 429.75 463.8 421.6 458.93 413.38 452.64 405.41 445.57 397.35 438.67 389.4 431.18 381.85 423.57 374.08 416.22 366.58 408.64 359.77 401.11 352.77 393.7 346.52 386.17 341.55 378.82 333.92 360.19 341.16 344.56 348.89 344.93 354.49 345.84 360.95 348.33 367.96 352.46" stroke-dasharray="4 2" transform="rotate(97.06666666666666, 400, 400)" opacity="0.29"></path><path d="M370.39 363.59C381.67 369.71 393.7 379.29 404.94 390.01 417.23 399.99 429.82 412.05 439.6 424.65 451.59 442.6 442.9 459.69 425.47 452.66 412.56 444.92 398.55 432.95 385.87 420.26 372.81 408.08 360.62 394.95 352.45 383.1 343.7 367.02 354.81 356.14 370.39 363.59" stroke-dasharray="2 8" transform="rotate(100.8, 400, 400)" opacity="0.76"></path><path d="M374.74 374.72C383.29 379.49 392.97 387.06 402.14 395.56 411.82 403.7 421.47 413.25 428.71 422.67 437.55 435.82 432.2 446.98 419.53 441.53 409.99 435.85 399.14 426.9 389.17 417.23 379.07 407.76 369.66 397.55 363.34 388.59 356.35 376.58 363.2 369.03 374.74 374.72" stroke-dasharray="6 2" transform="rotate(104.53333333333333, 400, 400)" opacity="0.34"></path><path d="M380.74 385.86C392.32 392.19 408.5 406.56 417.81 419.07 427.45 431.57 424.84 437.16 412.33 430.4 399.8 422.89 382.9 406.96 374.24 394.9 365.87 382.83 369.15 378.83 380.74 385.86" stroke-dasharray="3 2" transform="rotate(108.26666666666667, 400, 400)" opacity="0.20"></path></g></svg>